<?xml version="1.0" encoding="UTF-8"?>
<svg width="46px" height="121px" viewBox="0 0 46 121" version="1.1" xmlns="http://www.w3.org/2000/svg" xmlns:xlink="http://www.w3.org/1999/xlink">
    <!-- Generator: Sketch 42 (36781) - http://www.bohemiancoding.com/sketch -->
    <title>Artboard</title>
    <desc>Created with Sketch.</desc>
    <defs></defs>
    <g id="Page-1" stroke="none" stroke-width="1" fill="none" fill-rule="evenodd">
        <g id="1597x987" transform="translate(-295.000000, -506.000000)" fill-rule="nonzero" fill="#1F1300">
            <g id="qvickt" transform="translate(143.000000, 507.000000)">
                <g id="c" transform="translate(151.682747, 25.114087)">
                    <path d="M28.800791,65.1097313 C19.7128021,65.1097313 12.6739123,62.3117726 7.68412144,56.7158551 C2.69433062,51.1199377 0.205300954,43.1972761 0.217032438,32.9478703 C0.217032438,22.4481929 2.7471223,14.3339171 7.80730201,8.60504286 C12.8674817,2.87616861 20.0745229,0.00782098874 29.4284254,0 C32.4713541,0.00289681739 35.5053517,0.329302262 38.4792646,0.973713098 C40.9336739,1.4381103 43.320117,2.20862991 45.5826776,3.26721805 L42.6498069,11.3443442 C40.4195609,10.4677251 38.1226033,9.77138019 35.7810235,9.26200592 C33.6217906,8.74736332 31.4131698,8.46808981 29.1937957,8.42907062 C16.4377631,8.42907062 10.0597468,16.5628989 10.0597468,32.8305555 C10.0597468,40.5459609 11.6239445,46.4644941 14.75234,50.5861552 C17.8807355,54.7078163 22.4912084,56.770602 28.5837586,56.7745125 C34.1155938,56.7054446 39.5801178,55.5515572 44.667622,53.3782482 L44.667622,61.801453 C40.467751,64.0069719 35.1788074,65.1097313 28.800791,65.1097313 Z" id="Shape"></path>
                </g>
            </g>
        </g>
        <g id="Artboard"></g>
    </g>
</svg>