<?xml version="1.0" encoding="UTF-8"?>
<svg width="56px" height="121px" viewBox="0 0 56 121" version="1.1" xmlns="http://www.w3.org/2000/svg" xmlns:xlink="http://www.w3.org/1999/xlink">
    <!-- Generator: Sketch 42 (36781) - http://www.bohemiancoding.com/sketch -->
    <title>Artboard</title>
    <desc>Created with Sketch.</desc>
    <defs></defs>
    <g id="Page-1" stroke="none" stroke-width="1" fill="none" fill-rule="evenodd">
        <g id="1597x987" transform="translate(-299.000000, -343.000000)" fill-rule="nonzero" fill="#1F1300">
            <g id="Gud" transform="translate(143.000000, 344.000000)">
                <g id="d" transform="translate(156.000000, 0.000000)">
                    <g id="Layer_1">
                        <path d="M46.3393583,80.7360668 L45.823173,80.7360668 C41.4473298,87.1336356 34.8874755,90.33242 26.1436101,90.33242 C17.9315719,90.33242 11.5437794,87.524685 6.98023245,81.9092151 C2.41668552,76.2937452 0.134912056,68.3124262 0.134912056,57.9652581 C0.134912056,47.61809 2.42646176,39.5800688 7.00956116,33.8511945 C11.5926606,28.1223203 17.9706769,25.2461517 26.1436101,25.2226887 C34.6606669,25.2226887 41.1911925,28.3158897 45.7351869,34.5022918 L46.4801361,34.5022918 L46.0812657,29.9798051 L45.8525018,25.5687674 L45.8525018,0 L55.3608688,0 L55.3608688,89.1592717 L47.6239557,89.1592717 L46.3393583,80.7360668 Z M27.3226242,82.3374142 C33.8140448,82.3374142 38.5203248,80.5776918 41.4414641,77.0582468 C44.3626034,73.5388019 45.823173,67.8392564 45.823173,59.9596102 L45.823173,57.9535266 C45.823173,49.0571519 44.3430509,42.7084643 41.3828067,38.9074637 C38.4225624,35.1064632 33.69673,33.205963 27.2053093,33.205963 C21.6289444,33.205963 17.3606398,35.3723768 14.4003955,39.7052046 C11.4401513,44.0380324 9.96393966,50.1599113 9.97176065,58.0708414 C9.97176065,66.0912654 11.4421065,72.1525316 14.3827983,76.2546402 C17.3234901,80.3567488 21.6445863,82.3862954 27.3460871,82.34328 L27.3226242,82.3374142 Z" id="Shape"></path>
                    </g>
                </g>
            </g>
        </g>
        <g id="Artboard"></g>
    </g>
</svg>