<?xml version="1.0" encoding="UTF-8"?>
<svg width="53px" height="121px" viewBox="0 0 53 121" version="1.1" xmlns="http://www.w3.org/2000/svg" xmlns:xlink="http://www.w3.org/1999/xlink">
    <!-- Generator: Sketch 42 (36781) - http://www.bohemiancoding.com/sketch -->
    <title>Artboard</title>
    <desc>Created with Sketch.</desc>
    <defs></defs>
    <g id="Page-1" stroke="none" stroke-width="1" fill="none" fill-rule="evenodd">
        <g id="1597x987" transform="translate(-420.000000, -343.000000)" fill-rule="nonzero" fill="#1F1300">
            <g id="hjälpe" transform="translate(420.000000, 344.214782)">
                <g id="h">
                    <g id="Layer_1">
                        <path d="M43.0721403,89.2003319 L43.0721403,48.5859373 C43.0721403,43.4671002 41.8989919,39.6485024 39.5526953,37.1301441 C37.2063987,34.6117857 33.5598627,33.3506512 28.6130873,33.3467408 C22.0043518,33.3467408 17.1827123,35.1416577 14.1481686,38.7314915 C11.113625,42.3213253 9.60417418,48.2027089 9.61981615,56.3756421 L9.61981615,89.2237948 L0.11144909,89.2237948 L0.11144909,0.0645231571 L9.61981615,0.0645231571 L9.61981615,27.0469343 C9.65287437,29.7466196 9.50000355,32.4453775 9.16228831,35.1240604 L9.74886247,35.1240604 C11.6895453,32.0436641 14.4581916,29.5718036 17.7380025,27.9913187 C21.4213937,26.2029684 25.4753373,25.3105782 29.5692032,25.3869295 C37.2455036,25.3869295 43.0017514,27.2111751 46.8379463,30.8596663 C50.6741413,34.5081576 52.5922388,40.3035102 52.5922388,48.2457243 L52.5922388,89.2003319 L43.0721403,89.2003319 Z" id="Shape"></path>
                    </g>
                </g>
            </g>
        </g>
        <g id="Artboard"></g>
    </g>
</svg>