<?xml version="1.0" encoding="UTF-8"?>
<svg width="12px" height="121px" viewBox="0 0 12 121" version="1.1" xmlns="http://www.w3.org/2000/svg" xmlns:xlink="http://www.w3.org/1999/xlink">
    <!-- Generator: Sketch 42 (36781) - http://www.bohemiancoding.com/sketch -->
    <title>Artboard</title>
    <desc>Created with Sketch.</desc>
    <defs></defs>
    <g id="Page-1" stroke="none" stroke-width="1" fill="none" fill-rule="evenodd">
        <g id="1597x987" transform="translate(-272.000000, -506.000000)" fill-rule="nonzero" fill="#1F1300">
            <g id="qvickt" transform="translate(143.000000, 507.000000)">
                <g id="i" transform="translate(129.684523, 2.807487)">
                    <path d="M0,6.45231571 C0,4.27417035 0.533782482,2.68064389 1.60134745,1.67173634 C3.86156722,-0.370683475 7.30093896,-0.370683475 9.56115874,1.67173634 C10.6560972,2.70801735 11.2035664,4.30154381 11.2035664,6.45231571 C11.2035664,8.60308762 10.6502314,10.1966141 9.54356151,11.2328951 C8.48788594,12.2635127 7.06524741,12.8313016 5.5900517,12.8107796 C4.09346198,12.8538767 2.64418625,12.283913 1.57788448,11.2328951 C0.525961493,10.1692406 0,8.57571416 0,6.45231571 Z M10.3119737,86.2264009 L0.780143627,86.2264009 L0.780143627,23.4629662 L10.2885107,23.4629662 L10.3119737,86.2264009 Z" id="Shape"></path>
                </g>
            </g>
        </g>
        <g id="Artboard"></g>
    </g>
</svg>