<?xml version="1.0" encoding="UTF-8"?>
<svg width="37px" height="121px" viewBox="0 0 37 121" version="1.1" xmlns="http://www.w3.org/2000/svg" xmlns:xlink="http://www.w3.org/1999/xlink">
    <!-- Generator: Sketch 42 (36781) - http://www.bohemiancoding.com/sketch -->
    <title>Artboard</title>
    <desc>Created with Sketch.</desc>
    <defs></defs>
    <g id="Page-1" stroke="none" stroke-width="1" fill="none" fill-rule="evenodd">
        <g id="1597x987" transform="translate(-924.000000, -343.000000)" fill-rule="nonzero" fill="#1F1300">
            <g id="Zorns" transform="translate(793.000000, 349.000000)">
                <g id="r" transform="translate(131.000000, 20.000000)">
                    <g id="Layer_1">
                        <path d="M28.9591661,0.0938518649 C31.4767044,0.0682359163 33.9903436,0.29817789 36.4614495,0.780143627 L35.1416577,9.57875596 C32.8873054,9.04838939 30.5825814,8.76128215 28.2670086,8.7223577 C23.1833659,8.7223577 18.8388066,10.7851435 15.2333308,14.910715 C11.627855,19.0362866 9.82316186,24.172721 9.81925137,30.3200181 L9.81925137,64.0011061 L0.316750044,64.0011061 L0.316750044,1.23767147 L8.16511225,1.23767147 L9.25614018,12.8635712 L9.71366802,12.8635712 C11.7504341,9.10296538 14.6341832,5.86778447 18.1368729,3.41386159 C21.3220075,1.23086365 25.0978052,0.0725430621 28.9591661,0.0938518649 L28.9591661,0.0938518649 Z" id="Shape"></path>
                    </g>
                </g>
            </g>
        </g>
        <g id="Artboard"></g>
    </g>
</svg>