<?xml version="1.0" encoding="UTF-8"?>
<svg width="45px" height="121px" viewBox="0 0 45 121" version="1.1" xmlns="http://www.w3.org/2000/svg" xmlns:xlink="http://www.w3.org/1999/xlink">
    <!-- Generator: Sketch 42 (36781) - http://www.bohemiancoding.com/sketch -->
    <title>Artboard</title>
    <desc>Created with Sketch.</desc>
    <defs></defs>
    <g id="Page-1" stroke="none" stroke-width="1" fill="none" fill-rule="evenodd">
        <g id="1597x987" transform="translate(-1036.000000, -343.000000)" fill-rule="nonzero" fill="#1F1300">
            <g id="Zorns" transform="translate(793.000000, 349.000000)">
                <g id="s" transform="translate(243.064221, 20.037437)">
                    <g id="Layer_1">
                        <path d="M44.7145479,46.8086176 C44.7145479,52.6508962 42.5383578,57.1479647 38.1859775,60.2998232 C33.8335973,63.4516817 27.7234498,65.0549844 19.8555352,65.1097313 C11.5300927,65.1097313 5.038672,63.7918947 0.381273201,61.1562215 L0.381273201,52.3576091 C3.47460104,53.9136527 6.7302533,55.123457 10.0890755,55.9650402 C13.3452907,56.8173656 16.6950058,57.2607102 20.0608361,57.284832 C25.0232535,57.284832 28.8418512,56.4929569 31.5166294,54.9092067 C34.1914075,53.3254565 35.5287966,50.9107262 35.5287966,47.6650159 C35.5287966,45.2209569 34.4690526,43.1307977 32.3495647,41.3945382 C30.2300767,39.6582787 26.0947289,37.5915824 19.9435213,35.1944493 C14.1012427,33.016304 9.94829768,31.1158037 7.48468623,29.4929485 C5.24969403,28.1012684 3.36825229,26.209787 1.98848639,23.96742 C0.735378044,21.7100097 0.111436277,19.1575206 0.181837988,16.5765856 C0.0397709772,11.7222378 2.40976208,7.13744676 6.45231571,4.4462321 C10.6130817,1.48207737 16.3224035,0 23.5802811,0 C30.3995384,0.00557230069 37.1459242,1.40275278 43.4064875,4.10601909 L40.0278204,11.8370665 C33.728014,9.2404982 28.0186922,7.94221407 22.899855,7.94221407 C18.3949655,7.94221407 14.9967459,8.6480583 12.7051962,10.0597468 C10.4136465,11.4714352 9.26787166,13.4266824 9.26787166,15.9254883 C9.22407044,17.4583982 9.67670486,18.9644363 10.5583348,20.2192111 C11.686959,21.6276222 13.1027006,22.779412 14.7112798,23.5978783 C16.6196011,24.6654432 20.2856896,26.2120438 25.7095452,28.2376799 C33.1394846,30.9476525 38.1703356,33.6849985 40.8020983,36.449718 C43.433861,39.2144376 44.7380109,42.6674041 44.7145479,46.8086176 Z" id="Shape"></path>
                    </g>
                </g>
            </g>
        </g>
        <g id="Artboard"></g>
    </g>
</svg>