<svg viewBox="0 120 493 253" version="1.1" xmlns="http://www.w3.org/2000/svg" xmlns:xlink="http://www.w3.org/1999/xlink">
    <g stroke="none" stroke-width="1" fill="none" fill-rule="evenodd" transform="translate(0.000000, 120.000000)">
        <polygon id="Shape" fill="#002561" fill-rule="nonzero" points="216.311 198.533 246.734 216.85 276.764 198.327 246.741 182.528"></polygon>
        <polygon id="Shape" fill="#002561" fill-rule="nonzero" points="207.698 193.337 213.668 158.487 146.809 105.69 136.071 150.188"></polygon>
        <path d="M202.817,65.422 L194.822,89.377 L153.1,99.907 L186.374,125.385 L226.264,119.573 L246.741,78.161 L267.21,119.586 L307.106,125.385 L340.359,99.907 L298.63,89.378 C298.63,89.378 270.244,0.505 255.597,0.505 L215.662,0.505 C199.594,0.505 204.019,19.632 180.062,19.632 C156.113,19.632 151.78,48.42 151.78,48.42 L183.718,48.42 C206.694,48.419 202.817,65.422 202.817,65.422 Z M214.488,14.815 C217.35,14.815 219.654,17.119 219.654,19.966 C219.654,22.81 217.35,25.128 214.488,25.128 C211.645,25.128 209.334,22.81 209.334,19.966 C209.334,17.12 211.659,14.815 214.488,14.815 Z" id="Shape" fill="#002561" fill-rule="nonzero"></path>
        <polygon id="Shape" fill="#002561" fill-rule="nonzero" points="285.697 192.807 357.411 148.553 346.703 105.675 279.82 158.487"></polygon>
        <path d="M353.893,101.056 L364.08,144.51 L443.522,144.51 C476.113,144.51 492.748,101.056 492.748,101.056 L353.893,101.056 L353.893,101.056 Z" id="Shape" fill="#002561" fill-rule="nonzero"></path>
        <path d="M295.502,198.83 L391.916,198.83 C424.508,198.83 448.951,155.374 448.951,155.374 L362.381,155.374 L295.502,198.83 Z" id="Shape" fill="#0691CD" fill-rule="nonzero"></path>
        <path d="M246.373,230.621 L212.769,208.786 L98.794,208.786 C98.794,208.786 132.403,252.243 164.992,252.243 L213.097,252.243 L279.648,252.243 L327.751,252.243 C360.346,252.243 393.954,208.786 393.954,208.786 L279.977,208.786 L246.373,230.621 Z" id="Shape" fill="#002561" fill-rule="nonzero"></path>
        <path d="M128.668,144.509 L138.853,101.055 L0,101.055 C0,101.055 16.635,144.509 49.229,144.509 L128.668,144.509 Z" id="Shape" fill="#002561" fill-rule="nonzero"></path>
        <path d="M197.244,198.83 L130.366,155.374 L43.795,155.374 C43.795,155.374 68.238,198.83 100.83,198.83 L197.244,198.83 Z" id="Shape" fill="#0691CD" fill-rule="nonzero"></path>
    </g>
</svg>
