<?xml version="1.0" encoding="UTF-8"?>
<svg width="51px" height="121px" viewBox="0 0 51 121" version="1.1" xmlns="http://www.w3.org/2000/svg" xmlns:xlink="http://www.w3.org/1999/xlink">
    <!-- Generator: Sketch 42 (36781) - http://www.bohemiancoding.com/sketch -->
    <title>Artboard</title>
    <desc>Created with Sketch.</desc>
    <defs></defs>
    <g id="Page-1" stroke="none" stroke-width="1" fill="none" fill-rule="evenodd">
        <g id="1597x987" transform="translate(-868.000000, -506.000000)" fill-rule="nonzero" fill="#1F1300">
            <g id="byxa" transform="translate(672.000000, 507.214782)">
                <g id="a" transform="translate(195.912697, 24.383250)">
                    <g id="Layer_1">
                        <path d="M43.4064875,63.936583 L41.5177187,55.0030586 L41.0601909,55.0030586 C37.9317954,58.9370159 34.8033999,61.6000626 31.6750044,62.9921986 C28.5466089,64.3843346 24.6673985,65.0901788 20.0373732,65.1097313 C13.8118661,65.1097313 8.92374816,63.5064286 5.37301927,60.2998232 C1.82229038,57.0932178 0.0625679099,52.5296709 0.0938518649,46.6091824 C0.0938518649,33.9313597 10.2337638,27.2835192 30.5135876,26.6656611 L41.1657742,26.3195824 L41.1657742,22.4071327 C41.1657742,17.4799098 40.1060303,13.8431501 37.9865423,11.4968535 C35.8670544,9.15055683 32.478611,7.97740852 27.8212122,7.97740852 C22.5889707,7.97740852 16.6704375,9.58071121 10.0656125,12.7873166 L7.13274173,5.51379706 C10.347061,3.78586958 13.7609221,2.4581475 17.2980719,1.56028725 C20.9177447,0.614503969 24.6431314,0.133554576 28.3843234,0.129046314 C35.8690096,0.129046314 41.4160459,1.79100642 45.0254322,5.11492664 C48.6348185,8.43884685 50.4414669,13.7727612 50.4453774,21.1166696 L50.4453774,63.936583 L43.4064875,63.936583 Z M21.9261419,57.2320404 C27.8466304,57.2320404 32.4962082,55.6091852 35.8748754,52.3634749 C39.2535425,49.1177646 40.9448313,44.5679044 40.9487418,38.7138943 L40.9487418,33.0417222 L31.4403747,33.4347269 C23.8774786,33.7006405 18.4262495,34.8737888 15.0866873,36.9541718 C11.7471251,39.0345548 10.077344,42.2704889 10.077344,46.6619741 C10.077344,50.0992986 11.1175355,52.7154194 13.1979185,54.5103363 C15.2783015,56.3052532 18.1896646,57.2124879 21.9320077,57.2320404 L21.9261419,57.2320404 Z" id="Shape"></path>
                    </g>
                </g>
            </g>
        </g>
        <g id="Artboard"></g>
    </g>
</svg>