<?xml version="1.0" encoding="UTF-8"?>
<svg width="52px" height="127px" viewBox="0 0 52 127" version="1.1" xmlns="http://www.w3.org/2000/svg" xmlns:xlink="http://www.w3.org/1999/xlink">
    <!-- Generator: Sketch 42 (36781) - http://www.bohemiancoding.com/sketch -->
    <title>Artboard</title>
    <desc>Created with Sketch.</desc>
    <defs></defs>
    <g id="Page-1" stroke="none" stroke-width="1" fill="none" fill-rule="evenodd">
        <g id="1597x987" transform="translate(-555.000000, -500.000000)" fill-rule="nonzero" fill="#1F1300">
            <g id="få" transform="translate(509.000000, 500.214782)">
                <g id="å" transform="translate(46.689849, 0.000000)">
                    <g id="Layer_1">
                        <path d="M43.4944736,95.7758281 L41.5998391,86.812975 L41.1423113,86.812975 C38.0139158,90.7469324 34.8855203,93.409979 31.7571248,94.802115 C28.6287293,96.194251 24.7436531,96.890319 20.1018963,96.890319 C13.8763893,96.890319 8.98827131,95.2870163 5.43754242,92.080411 C1.88681353,88.8738056 0.127091067,84.3102586 0.158375022,78.3897702 C0.158375022,65.7119474 10.2982869,59.064107 30.5781107,58.4462489 L41.2302974,58.1001701 L41.2302974,54.2053177 C41.2302974,49.2780948 40.1705534,45.6413351 38.0510655,43.2950384 C35.9315775,40.9487418 32.5431342,39.7755935 27.8857354,39.7755935 C22.6534939,39.7755935 16.7349607,41.3788962 10.1301357,44.5855016 L7.19726489,37.311982 C10.4115841,35.5840546 13.8254452,34.2563325 17.362595,33.3584722 C20.9822435,32.4125636 24.7076463,31.9316122 28.4488466,31.9272313 C35.9335328,31.9272313 41.480569,33.5891914 45.0899553,36.9131116 C48.6993417,40.2370318 50.5040348,45.5650804 50.5040348,52.8972574 L50.5040348,95.7171707 L43.4944736,95.7758281 Z M22.0141281,89.0712855 C27.9346165,89.0712855 32.5841943,87.4484304 35.9628615,84.2027201 C39.3415286,80.9570097 41.0308622,76.4130153 41.0308622,70.5707367 L41.0308622,64.8985646 L31.5224951,65.297435 C23.959599,65.5633486 18.5083699,66.7364969 15.1688077,68.8168799 C11.8292455,70.897263 10.1594644,74.133197 10.1594644,78.5246822 C10.1594644,81.9620068 11.1996559,84.5781275 13.2800389,86.3730444 C15.3604219,88.1679613 18.271785,89.067375 22.0141281,89.0712855 L22.0141281,89.0712855 Z M40.8607557,12.2300711 C40.8607557,15.9724143 39.6876074,18.9795844 37.3413108,21.2515817 C34.9950141,23.5235789 31.8666186,24.6595775 27.9561243,24.6595775 C24.1003768,24.6595775 21.0267282,23.5431314 18.7351785,21.3102391 C16.4436288,19.0773468 15.297854,16.0897291 15.297854,12.347386 C15.297854,8.60504286 16.4534051,5.63502239 18.7645072,3.43732455 C21.0756094,1.23962672 24.1394818,0.140777797 27.9561243,0.140777797 C31.8118717,0.140777797 34.9246252,1.27677641 37.2943848,3.54877364 C39.6704582,5.81121993 40.9679419,8.98023853 40.8607557,12.2593999 L40.8607557,12.2300711 Z M34.6723983,12.347386 C34.6723983,10.2083456 34.0428088,8.55616168 32.7836296,7.39083436 C29.9979319,5.06121507 25.9436453,5.06121507 23.1579477,7.39083436 C21.8987685,8.56398267 21.2691789,10.2161665 21.2691789,12.347386 C21.2691789,14.4786054 21.8420663,16.1307893 22.9878412,17.3039376 C24.133616,18.4770859 25.7955761,19.0636601 27.9737215,19.0636601 C29.7553344,19.1355689 31.4936782,18.5034439 32.8129583,17.3039376 C34.052585,16.1542522 34.6723983,14.5098894 34.6723983,12.3708489 L34.6723983,12.347386 Z" id="Shape"></path>
                    </g>
                </g>
            </g>
        </g>
        <g id="Artboard"></g>
    </g>
</svg>