<?xml version="1.0" encoding="UTF-8"?>
<svg width="51px" height="121px" viewBox="0 0 51 121" version="1.1" xmlns="http://www.w3.org/2000/svg" xmlns:xlink="http://www.w3.org/1999/xlink">
    <!-- Generator: Sketch 42 (36781) - http://www.bohemiancoding.com/sketch -->
    <title>Artboard</title>
    <desc>Created with Sketch.</desc>
    <defs></defs>
    <g id="Page-1" stroke="none" stroke-width="1" fill="none" fill-rule="evenodd">
        <g id="1597x987" transform="translate(-514.000000, -343.000000)" fill-rule="nonzero" fill="#373737">
            <g id="hjälpe" transform="translate(420.000000, 344.214782)">
                <g id="ä" transform="translate(94.000000, 3.000000)">
                    <g id="Layer_1">
                        <path d="M43.4064875,85.8040675 L41.5235845,76.8412144 L41.0601909,76.8412144 C37.9317954,80.7751717 34.8033999,83.4382184 31.6750044,84.8303544 C28.5466089,86.2224904 24.6615328,86.9185584 20.0197759,86.9185584 C13.7942689,86.9185584 8.90615093,85.3152557 5.35542204,82.1086503 C1.80469315,78.9020449 0.0449706853,74.338498 0.0762546402,68.4180095 C0.0762546402,55.7401868 10.2161665,49.0923463 30.4959904,48.4744882 L41.148177,48.1284095 L41.148177,44.2335571 C41.148177,39.3063342 40.088433,35.6695744 37.9689451,33.3232778 C35.8494571,30.9769812 32.4610138,29.8038329 27.803615,29.8038329 C22.5713735,29.8038329 16.6528403,31.4071355 10.0480153,34.6137409 L7.11514451,27.3402214 C10.3294638,25.6122939 13.7433248,24.2845718 17.2804746,23.3867116 C20.9001231,22.440803 24.6255259,21.9598515 28.3667262,21.9554706 C35.8514124,21.9554706 41.3984487,23.6174308 45.007835,26.941351 C48.6172213,30.2652712 50.4297354,35.603096 50.4453774,42.9548254 L50.4453774,85.7747388 L43.4064875,85.8040675 Z M21.9261419,79.0995249 C27.8466304,79.0995249 32.4962082,77.4766697 35.8748754,74.2309594 C39.2535425,70.9852491 40.9428761,66.4412546 40.9428761,60.598976 L40.9428761,54.9268039 L31.434509,55.3256744 C23.8716129,55.591588 18.4203837,56.7647363 15.0808215,58.8451193 C11.7412594,60.9255023 10.0714783,64.1614364 10.0714783,68.5529216 C10.0714783,71.9902461 11.1116698,74.6063669 13.1920528,76.4012838 C15.2724358,78.1962007 18.1857541,79.0956144 21.9320077,79.0995249 L21.9261419,79.0995249 Z M10.7049783,6.0123851 C10.7049783,4.02585396 11.2113874,2.59461302 12.2242054,1.71866228 C13.2299412,0.841424557 14.5266998,0.370826698 15.8609652,0.398870426 C17.2308141,0.369950163 18.5646568,0.838879252 19.6150398,1.71866228 C20.6669628,2.59852351 21.1929242,4.02976445 21.1929242,6.0123851 C21.1929242,7.92070635 20.6669628,9.3441263 19.6150398,10.2826449 C18.5871628,11.2098011 17.2449626,11.711029 15.8609652,11.6845572 C14.5121982,11.7098433 13.207011,11.2067146 12.2242054,10.2826449 C11.2113874,9.3441263 10.7049783,7.92070635 10.7049783,6.0123851 Z M32.5314027,6.0123851 C32.5314027,4.02585396 33.0378117,2.59461302 34.0506297,1.71866228 C35.0563656,0.841424557 36.3531241,0.370826698 37.6873895,0.398870426 C39.0382944,0.377267323 40.3512216,0.84616988 41.3828067,1.71866228 C42.4347297,2.59852351 42.9606912,4.02976445 42.9606912,6.0123851 C42.9606912,7.92070635 42.4347297,9.3441263 41.3828067,10.2826449 C40.3735445,11.2019798 39.0524686,11.7031499 37.6873895,11.6845572 C36.3386226,11.7098433 35.0334353,11.2067146 34.0506297,10.2826449 C33.0339012,9.3441263 32.5255369,7.92070635 32.5255369,6.0123851 L32.5314027,6.0123851 Z" id="Shape"></path>
                    </g>
                </g>
            </g>
        </g>
        <g id="Artboard"></g>
    </g>
</svg>