<?xml version="1.0" encoding="UTF-8"?>
<svg width="56px" height="121px" viewBox="0 0 56 121" version="1.1" xmlns="http://www.w3.org/2000/svg" xmlns:xlink="http://www.w3.org/1999/xlink">
    <!-- Generator: Sketch 42 (36781) - http://www.bohemiancoding.com/sketch -->
    <title>Artboard</title>
    <desc>Created with Sketch.</desc>
    <defs></defs>
    <g id="Page-1" stroke="none" stroke-width="1" fill="none" fill-rule="evenodd">
        <g id="1597x987" transform="translate(-672.000000, -506.000000)" fill-rule="nonzero" fill="#373737">
            <g id="byxa" transform="translate(672.000000, 507.214782)">
                <g id="b">
                    <g id="Layer_1">
                        <path d="M29.3287078,25.3458693 C37.5759404,25.3458693 43.9813302,28.1614252 48.5448771,33.7925371 C53.1084241,39.423649 55.3901975,47.3951918 55.3901975,57.7071654 C55.3901975,68.0191391 53.0888716,76.0356526 48.4862197,81.7567058 C43.8835678,87.4777591 37.4977305,90.3363305 29.3287078,90.33242 C25.4778586,90.3798148 21.6609279,89.6080311 18.1310072,88.0682437 C14.7294923,86.5412695 11.7943923,84.1385359 9.6256819,81.1056085 L8.93939013,81.1056085 L6.92744078,89.1592717 L0.11144909,89.1592717 L0.11144909,0 L9.61981615,0 L9.61981615,21.7032438 C9.61981615,26.5522568 9.46730687,30.9065923 9.16228831,34.7662502 L9.61981615,34.7662502 C14.0504063,28.4859962 20.6200368,25.3458693 29.3287078,25.3458693 Z M27.9561243,33.3056806 C21.4647036,33.3056806 16.7857971,35.1670759 13.9194047,38.8898665 C11.0530123,42.6126572 9.6217714,48.8850901 9.6256819,57.7071654 C9.6256819,66.5292407 11.0960278,72.8407787 14.0367195,76.6417792 C16.9774113,80.4427797 21.6836913,82.34328 28.1555595,82.34328 C33.9978381,82.34328 38.3521735,80.2140158 41.2185659,75.9554874 C44.0849583,71.6969591 45.5161992,65.5770354 45.5122887,57.5957163 C45.5122887,49.4227831 44.0810478,43.3321881 41.2185659,39.3239314 C38.356084,35.3156747 33.9333149,33.3115463 27.9502585,33.3115463 L27.9561243,33.3056806 Z" id="Shape"></path>
                    </g>
                </g>
            </g>
        </g>
        <g id="Artboard"></g>
    </g>
</svg>