<?xml version="1.0" encoding="UTF-8"?>
<svg width="54px" height="121px" viewBox="0 0 54 121" version="1.1" xmlns="http://www.w3.org/2000/svg" xmlns:xlink="http://www.w3.org/1999/xlink">
    <!-- Generator: Sketch 42 (36781) - http://www.bohemiancoding.com/sketch -->
    <title>Artboard</title>
    <desc>Created with Sketch.</desc>
    <defs></defs>
    <g id="Page-1" stroke="none" stroke-width="1" fill="none" fill-rule="evenodd">
        <g id="1597x987" transform="translate(-674.000000, -343.000000)" fill-rule="nonzero" fill="#373737">
            <g id="hjälpe" transform="translate(420.000000, 344.214782)">
                <g id="e" transform="translate(254.000000, 24.000000)">
                    <g id="Layer_1">
                        <path d="M30.1499116,65.1097313 C20.8703085,65.1097313 13.557684,62.2746229 8.21203818,56.604406 C2.86639237,50.9341892 0.183793235,43.085827 0.164240764,33.0593194 C0.164240764,22.93896 2.65522568,14.9009388 7.63719551,8.94525587 C12.6191653,2.98957295 19.3022002,0.00782098874 27.6863001,-7.10542736e-15 C35.5542148,-7.10542736e-15 41.7719009,2.59070252 46.3393583,7.77210756 C50.9068157,12.9535126 53.1983654,19.7792805 53.2140074,28.2494113 L53.2140074,34.2617964 L9.97176065,34.2617964 C10.1633749,41.6330783 12.0247702,47.2270405 15.5559466,51.043683 C19.087123,54.8603255 24.0690929,56.770602 30.5018561,56.7745125 C37.4043251,56.7443457 44.227507,55.301057 50.5509607,52.5335814 L50.5509607,61.0037122 C47.4837449,62.3593539 44.2886039,63.4047506 41.013265,64.1242867 C37.435079,64.8213252 33.7951183,65.151516 30.1499116,65.1097313 L30.1499116,65.1097313 Z M27.5689853,7.97154278 C22.5283581,7.97154278 18.5083699,9.61395041 15.5090207,12.8987657 C12.5096715,16.183581 10.749949,20.7275754 10.2298533,26.5307491 L43.078006,26.5307491 C43.078006,20.5359612 41.7406169,15.9430856 39.0658388,12.7521221 C36.3910606,9.56115874 32.5587761,7.96763228 27.5689853,7.97154278 Z" id="Shape"></path>
                    </g>
                </g>
            </g>
        </g>
        <g id="Artboard"></g>
    </g>
</svg>