<?xml version="1.0" encoding="UTF-8"?>
<svg width="43px" height="121px" viewBox="0 0 43 121" version="1.1" xmlns="http://www.w3.org/2000/svg" xmlns:xlink="http://www.w3.org/1999/xlink">
    <!-- Generator: Sketch 42 (36781) - http://www.bohemiancoding.com/sketch -->
    <title>Artboard</title>
    <desc>Created with Sketch.</desc>
    <defs></defs>
    <g id="Page-1" stroke="none" stroke-width="1" fill="none" fill-rule="evenodd">
        <g id="1597x987" transform="translate(-509.000000, -506.000000)" fill-rule="nonzero" fill="#373737">
            <g id="få" transform="translate(509.000000, 500.214782)">
                <g id="f" transform="translate(0.000000, 5.614975)">
                    <g id="Layer_1">
                        <path d="M36.8251255,34.9422225 L20.8409798,34.9422225 L20.8409798,90.33242 L11.3326127,90.33242 L11.3326127,34.9422225 L0.105583348,34.9422225 L0.105583348,30.6484996 L11.3326127,27.2111751 L11.3326127,23.6917301 C11.3326127,8.26482985 18.0723497,0.551379706 31.5518238,0.551379706 C35.5224125,0.659445582 39.4571226,1.33498316 43.236381,2.55746332 L40.7727696,10.1829273 C37.7520473,9.12256361 34.5872559,8.52916522 31.3875831,8.42320488 C27.7977492,8.42320488 25.1444788,9.61590566 23.4277718,12.0013072 C21.7110647,14.3867088 20.8488007,18.2072618 20.8409798,23.4629662 L20.8409798,27.5689853 L36.8251255,27.5689853 L36.8251255,34.9422225 Z" id="Shape"></path>
                    </g>
                </g>
            </g>
        </g>
        <g id="Artboard"></g>
    </g>
</svg>