<?xml version="1.0" encoding="UTF-8"?>
<svg width="27px" height="121px" viewBox="0 0 27 121" version="1.1" xmlns="http://www.w3.org/2000/svg" xmlns:xlink="http://www.w3.org/1999/xlink">
    <!-- Generator: Sketch 42 (36781) - http://www.bohemiancoding.com/sketch -->
    <title>Artboard</title>
    <desc>Created with Sketch.</desc>
    <defs></defs>
    <g id="Page-1" stroke="none" stroke-width="1" fill="none" fill-rule="evenodd">
        <g id="1597x987" transform="translate(-475.000000, -343.000000)" fill-rule="nonzero" fill="#373737">
            <g id="hjälpe" transform="translate(420.000000, 344.214782)">
                <g id="j" transform="translate(54.843149, 2.499112)">
                    <g id="Layer_1">
                        <path d="M8.91592717,114.38196 C5.28698839,114.38196 2.35411761,113.90488 0.117314831,112.950719 L0.117314831,105.243135 C2.64532332,106.000664 5.26803268,106.395651 7.90701962,106.416283 C10.8868163,106.416283 13.0727827,105.604856 14.4649187,103.982001 C15.8570547,102.359145 16.5531227,99.8857577 16.5531227,96.5618375 L16.5531227,23.4629662 L26.0438925,23.4629662 L26.0438925,95.8520828 C26.0438925,108.205335 20.3345707,114.38196 8.91592717,114.38196 Z M15.7319189,6.45231571 C15.7319189,4.27417035 16.2657013,2.68064389 17.3332663,1.67173634 C19.5934861,-0.370683475 23.0328578,-0.370683475 25.2930776,1.67173634 C26.4193,2.70801735 26.9824112,4.30154381 26.9824112,6.45231571 C26.9824112,8.60308762 26.4290762,10.1966141 25.3224063,11.2328951 C24.2670913,12.264067 22.8442124,12.8319519 21.3688965,12.8107796 C19.8723068,12.8538767 18.423031,12.283913 17.3567293,11.2328951 C16.2735223,10.1692406 15.7319189,8.57571416 15.7319189,6.45231571 Z" id="Shape"></path>
                    </g>
                </g>
            </g>
        </g>
        <g id="Artboard"></g>
    </g>
</svg>