<?xml version="1.0" encoding="UTF-8"?>
<svg width="91px" height="121px" viewBox="0 0 91 121" version="1.1" xmlns="http://www.w3.org/2000/svg" xmlns:xlink="http://www.w3.org/1999/xlink">
    <!-- Generator: Sketch 42 (36781) - http://www.bohemiancoding.com/sketch -->
    <title>Artboard</title>
    <desc>Created with Sketch.</desc>
    <defs></defs>
    <g id="Page-1" stroke="none" stroke-width="1" fill="none" fill-rule="evenodd">
        <g id="1597x987" transform="translate(-1147.000000, -343.000000)" fill-rule="nonzero" fill="#373737">
            <g id="mö" transform="translate(1148.000000, 347.214782)">
                <g id="m" transform="translate(0.000000, 22.000000)">
                    <g id="Layer_1">
                        <path d="M80.1318954,64.0187034 L80.1318954,23.1755449 C80.1318954,18.1740226 79.0623752,14.4219032 76.9233348,11.9191868 C74.7842944,9.41647045 71.4603741,8.16511225 66.9515741,8.16511225 C61.0310857,8.16511225 56.6591529,9.86422205 53.835776,13.2624417 C51.0123991,16.6606613 49.5987554,21.8929027 49.5948449,28.9591661 L49.5948449,64.0187034 L40.0923435,64.0187034 L40.0923435,23.1755449 C40.0923435,18.1740226 39.0228233,14.4219032 36.8837829,11.9191868 C34.7447425,9.41647045 31.403225,8.16511225 26.8592306,8.16511225 C20.9035477,8.16511225 16.5413912,9.95025293 13.7727612,13.5205343 C11.0041312,17.0908157 9.61981615,22.946781 9.61981615,31.0884303 L9.61981615,64.0245691 L0.11144909,64.0245691 L0.11144909,1.26113443 L7.84249646,1.26113443 L9.38518649,9.83098285 L9.84271433,9.83098285 C11.6413767,6.77130435 14.2741291,4.28707663 17.4329839,2.66891241 C20.8219677,0.921766699 24.5895025,0.0373026469 28.4019206,0.0938518649 C38.2172615,0.0938518649 44.6324275,3.64458075 47.6474187,10.7460385 L48.0990808,10.7460385 C50.0092358,7.41403676 52.8375236,4.70181261 56.2465958,2.93287078 C59.9904281,0.977076864 64.1654839,-0.00718750118 68.3886808,0.0703888987 C75.4901386,0.0703888987 80.8084109,1.89463452 84.3434978,5.54312577 C87.8785848,9.19161702 89.6383072,15.0241194 89.6226653,23.0406328 L89.6226653,63.9952404 L80.1318954,64.0187034 Z" id="Shape"></path>
                    </g>
                </g>
            </g>
        </g>
        <g id="Artboard"></g>
    </g>
</svg>