<?xml version="1.0" encoding="UTF-8"?>
<svg width="53px" height="121px" viewBox="0 0 53 121" version="1.1" xmlns="http://www.w3.org/2000/svg" xmlns:xlink="http://www.w3.org/1999/xlink">
    <!-- Generator: Sketch 42 (36781) - http://www.bohemiancoding.com/sketch -->
    <title>Artboard</title>
    <desc>Created with Sketch.</desc>
    <defs></defs>
    <g id="Page-1" stroke="none" stroke-width="1" fill="none" fill-rule="evenodd">
        <g id="1597x987" transform="translate(-970.000000, -343.000000)" fill-rule="nonzero" fill="#1F1300">
            <g id="Zorns" transform="translate(793.000000, 349.000000)">
                <g id="n" transform="translate(177.000000, 20.000000)">
                    <g id="Layer_1">
                        <path d="M43.1132004,63.936583 L43.1132004,23.3221884 C43.1132004,18.2033513 41.9400521,14.3847535 39.5937555,11.8663952 C37.2474589,9.34803679 33.6009229,8.08690236 28.6541475,8.08299187 C22.084517,8.08299187 17.2726536,9.85835631 14.2185575,13.4090852 C11.1644614,16.9598141 9.63741338,22.8255556 9.63741338,31.0063099 L9.63741338,63.936583 L0.15250928,63.936583 L0.15250928,1.17314831 L7.88355665,1.17314831 L9.43211242,9.76645969 L9.88964027,9.76645969 C11.8829418,6.63332875 14.7329394,4.13754514 18.1016784,2.57506054 C21.7668394,0.842250252 25.7793822,-0.0304778136 29.8331616,0.0234629662 C37.3960577,0.0234629662 43.085827,1.84770859 46.9024695,5.49619984 C50.719112,9.14469109 52.6293885,14.9771934 52.633299,22.9937069 L52.633299,63.936583 L43.1132004,63.936583 Z" id="Shape"></path>
                    </g>
                </g>
            </g>
        </g>
        <g id="Artboard"></g>
    </g>
</svg>