<?xml version="1.0" encoding="UTF-8"?>
<svg width="58px" height="121px" viewBox="0 0 58 121" version="1.1" xmlns="http://www.w3.org/2000/svg" xmlns:xlink="http://www.w3.org/1999/xlink">
    <!-- Generator: Sketch 42 (36781) - http://www.bohemiancoding.com/sketch -->
    <title>Artboard</title>
    <desc>Created with Sketch.</desc>
    <defs></defs>
    <g id="Page-1" stroke="none" stroke-width="1" fill="none" fill-rule="evenodd">
        <g id="1597x987" transform="translate(-855.000000, -343.000000)" fill-rule="nonzero" fill="#1F1300">
            <g id="Zorns" transform="translate(793.000000, 349.000000)">
                <g id="o" transform="translate(62.000000, 20.000000)">
                    <g id="Layer_1">
                        <path d="M57.8186145,32.5724629 C57.8186145,42.8062266 55.2415987,50.7973219 50.0875672,56.5457486 C44.9335356,62.2941753 37.8183911,65.1664335 28.7421336,65.162523 C23.4877811,65.2586865 18.31046,63.8897127 13.7903584,61.2090131 C9.37173371,58.5117355 5.85560976,54.5606903 3.68955144,49.8588032 C1.31979185,44.9315803 0.136867303,39.1655564 0.140777797,32.5607314 C0.140777797,22.3269676 2.70019636,14.3554248 7.8190335,8.64610306 C12.9378706,2.93678127 20.0412837,0.0821203818 29.1292726,0.0821203818 C37.9122429,0.0821203818 44.8905201,3.00325968 50.0641042,8.84553827 C55.2376882,14.6878169 57.822525,22.5967917 57.8186145,32.5724629 Z M9.98935787,32.5724629 C9.98935787,40.5928868 11.5926606,46.7030343 14.7992659,50.9029052 C18.0058713,55.1027762 22.7219275,57.2027117 28.9474346,57.2027117 C35.1729416,57.2027117 39.8987741,55.1125524 43.1249319,50.9322339 C46.3510898,46.7519155 47.9641687,40.6319918 47.9641687,32.5724629 C47.9641687,24.5911439 46.3510898,18.5298776 43.1249319,14.388664 C39.8987741,10.2474505 35.1338367,8.17488848 28.8301198,8.17097799 C22.6046127,8.17097799 17.9120195,10.2142113 14.75234,14.3006779 C11.5926606,18.3871445 9.99913411,24.4777395 9.97176065,32.5724629 L9.98935787,32.5724629 Z" id="Shape"></path>
                    </g>
                </g>
            </g>
        </g>
        <g id="Artboard"></g>
    </g>
</svg>