<?xml version="1.0" encoding="UTF-8"?>
<svg width="58px" height="121px" viewBox="0 0 58 121" version="1.1" xmlns="http://www.w3.org/2000/svg" xmlns:xlink="http://www.w3.org/1999/xlink">
    <!-- Generator: Sketch 42 (36781) - http://www.bohemiancoding.com/sketch -->
    <title>Artboard</title>
    <desc>Created with Sketch.</desc>
    <defs></defs>
    <g id="Page-1" stroke="none" stroke-width="1" fill="none" fill-rule="evenodd">
        <g id="1597x987" transform="translate(-1247.000000, -343.000000)" fill-rule="nonzero" fill="#373737">
            <g id="mรถ" transform="translate(1148.000000, 347.214782)">
                <g id="รถ" transform="translate(99.000000, 0.000000)">
                    <g id="Layer_1">
                        <path d="M57.9828553,54.1935862 C57.9828553,64.42735 55.4058395,72.4184453 50.2518079,78.166872 C45.0977763,83.9152987 37.9748108,86.7973331 28.8829114,86.812975 C23.6285589,86.9091386 18.4512378,85.5401648 13.9311362,82.8594652 C9.51990978,80.1610615 6.01024074,76.2124286 3.84792646,71.5151211 C1.47816687,66.5878982 0.295242325,60.8218742 0.299152819,54.2170492 C0.299152819,43.9832854 2.85857139,36.0117427 7.97740852,30.3024209 C13.0962456,24.5930991 20.1977034,21.7267067 29.2817819,21.7032438 C38.0647522,21.7032438 45.0430294,24.6243831 50.2166135,30.4666616 C55.3901975,36.3089402 57.9789448,44.2179151 57.9828553,54.1935862 Z M10.1535986,54.1935862 C10.1535986,62.2140102 11.7569013,68.3241577 14.9635067,72.5240286 C18.1701121,76.7238996 22.8861683,78.823835 29.1116753,78.823835 C35.3371824,78.823835 40.0630148,76.7336758 43.2891727,72.5533573 C46.5153305,68.3730388 48.1284095,62.2531151 48.1284095,54.1935862 C48.1284095,46.2122672 46.5153305,40.151001 43.2891727,36.0097874 C40.0630148,31.8685739 35.2980774,29.7960119 28.9943605,29.7921014 C22.7688535,29.7921014 18.0762602,31.8353347 14.9165808,35.9218013 C11.7569013,40.0082679 10.1692406,46.0988629 10.1535986,54.1935862 Z M12.9574231,5.86574156 C12.9574231,3.87921042 13.4638321,2.44796948 14.4766502,1.57201874 C15.482386,0.694781018 16.7791445,0.224183159 18.1134099,0.252226887 C19.4832589,0.223306624 20.8171016,0.692235713 21.8674845,1.57201874 C22.931139,2.43623799 23.4629662,3.86747893 23.4629662,5.86574156 C23.4629662,7.77406281 22.9370047,9.19748276 21.8850817,10.1360014 C20.8572047,11.0631576 19.5150046,11.5643854 18.1310072,11.5379136 C16.7822402,11.5631997 15.477053,11.0600711 14.4942474,10.1360014 C13.4696979,9.18575128 12.9574231,7.76233133 12.9574231,5.86574156 Z M34.7838474,5.86574156 C34.7838474,3.87921042 35.2902565,2.44796948 36.3030745,1.57201874 C37.3088103,0.694781018 38.6055689,0.224183159 39.9398343,0.252226887 C41.2907392,0.230623784 42.6036663,0.699526341 43.6352514,1.57201874 C44.6871744,2.45187997 45.2131359,3.88312091 45.2131359,5.86574156 C45.2131359,7.77406281 44.6871744,9.19748276 43.6352514,10.1360014 C42.6259893,11.0553363 41.3049134,11.5565064 39.9398343,11.5379136 C38.5910673,11.5631997 37.2858801,11.0600711 36.3030745,10.1360014 C35.2902565,9.18575128 34.7838474,7.76233133 34.7838474,5.86574156 Z" id="Shape"></path>
                    </g>
                </g>
            </g>
        </g>
        <g id="Artboard"></g>
    </g>
</svg>