<?xml version="1.0" encoding="UTF-8"?>
<svg width="56px" height="121px" viewBox="0 0 56 121" version="1.1" xmlns="http://www.w3.org/2000/svg" xmlns:xlink="http://www.w3.org/1999/xlink">
    <!-- Generator: Sketch 42 (36781) - http://www.bohemiancoding.com/sketch -->
    <title>Artboard</title>
    <desc>Created with Sketch.</desc>
    <defs></defs>
    <g id="Page-1" stroke="none" stroke-width="1" fill="none" fill-rule="evenodd">
        <g id="1597x987" transform="translate(-607.000000, -343.000000)" fill-rule="nonzero" fill="#373737">
            <g id="hjälpe" transform="translate(420.000000, 344.214782)">
                <g id="p" transform="translate(187.566884, 24.652412)">
                    <g id="Layer_1">
                        <path d="M29.4460226,65.1097313 C25.5951734,65.1571261 21.7782428,64.3853424 18.248322,62.845555 C14.8468071,61.3185808 11.9117072,58.9158472 9.74299673,55.8829198 L9.05670496,55.8829198 C9.49997582,59.3320782 9.72917858,62.8053816 9.74299673,66.2828796 L9.74299673,92.0921424 L0.234629662,92.0921424 L0.234629662,1.17314831 L7.96567703,1.17314831 L9.28546888,9.76645969 L9.74299673,9.76645969 C11.8915682,6.58328322 14.8332882,4.01559636 18.2776507,2.31696792 C21.7772631,0.737576473 25.5836829,-0.0457446731 29.4225597,0.0234629662 C37.7480022,0.0234629662 44.1729444,2.86834762 48.6973864,8.55811693 C53.2218284,14.2478862 55.4840494,22.2292053 55.4840494,32.502074 C55.4840494,42.8140476 53.1827235,50.8305611 48.5800716,56.5516144 C43.9774197,62.2726676 37.5994034,65.1253733 29.4460226,65.1097313 Z M28.0734391,8.11232057 C21.6563178,8.11232057 17.0165163,9.88768502 14.1540344,13.4384139 C11.2915525,16.9891428 9.82120661,22.6417624 9.74299673,30.3962727 L9.74299673,32.5138055 C9.74299673,41.3358808 11.2133426,47.6474187 14.1540344,51.4484192 C17.0947261,55.2494197 21.8107824,57.14992 28.302203,57.14992 C33.7260587,57.14992 37.9748108,54.9541774 41.0484594,50.5626922 C44.122108,46.171207 45.6589323,40.1099408 45.6589323,32.3788934 C45.6589323,24.5579047 44.122108,18.5533405 41.0484594,14.3652011 C37.9748108,10.1770616 33.6498041,8.08494711 28.0734391,8.08885761 L28.0734391,8.11232057 Z" id="Shape"></path>
                    </g>
                </g>
            </g>
        </g>
        <g id="Artboard"></g>
    </g>
</svg>