<?xml version="1.0" encoding="UTF-8"?>
<svg width="56px" height="121px" viewBox="0 0 56 121" version="1.1" xmlns="http://www.w3.org/2000/svg" xmlns:xlink="http://www.w3.org/1999/xlink">
    <!-- Generator: Sketch 42 (36781) - http://www.bohemiancoding.com/sketch -->
    <title>Artboard</title>
    <desc>Created with Sketch.</desc>
    <defs></defs>
    <g id="Page-1" stroke="none" stroke-width="1" fill="none" fill-rule="evenodd">
        <g id="1597x987" transform="translate(-143.000000, -506.000000)" fill-rule="nonzero" fill="#373737">
            <g id="qvickt" transform="translate(143.000000, 507.000000)">
                <g id="q" transform="translate(0.000000, 24.844925)">
                    <path d="M25.9148462,65.1097313 C17.8201229,65.1097313 11.5007639,62.2648466 6.95676949,56.5750773 C2.41277503,50.885308 0.140777797,42.9430939 0.140777797,32.7484351 C0.140777797,22.4755664 2.4323275,14.4590529 7.0154269,8.69889473 C11.5985263,2.93873652 17.9745874,0.0391049437 26.1436101,0 C34.7466977,0 41.353478,3.24571033 45.9639508,9.73713098 L46.4801361,9.73713098 L47.8527196,1.17314831 L55.3550031,1.17314831 L55.3550031,92.0921424 L45.846636,92.0921424 L45.846636,65.2270461 C45.8075172,61.9700869 46.0173395,58.7149 46.4742704,55.4899151 L45.7527841,55.4899151 C41.345657,61.9031259 34.733011,65.1097313 25.9148462,65.1097313 Z M27.3460871,57.14992 C33.6849985,57.14992 38.3052476,55.4508102 41.2068344,52.0525906 C44.1084213,48.654371 45.6550218,42.9254967 45.846636,34.8659678 L45.846636,32.7484351 C45.846636,23.9654648 44.3567377,17.6461059 41.3769409,13.7903584 C38.3971442,9.93461095 33.681088,8.00673723 27.2287723,8.00673723 C21.6524073,8.00673723 17.3841027,10.1731511 14.4238585,14.5059789 C11.4636142,18.8388066 9.97958164,24.9528646 9.97176065,32.8481527 C9.97176065,40.7512618 11.4323303,46.7753784 14.3534696,50.9205025 C17.2746089,55.0656265 21.6054814,57.1323228 27.3460871,57.1205913 L27.3460871,57.14992 Z" id="Shape"></path>
                </g>
            </g>
        </g>
        <g id="Artboard"></g>
    </g>
</svg>