<?xml version="1.0" encoding="UTF-8"?>
<svg width="37px" height="121px" viewBox="0 0 37 121" version="1.1" xmlns="http://www.w3.org/2000/svg" xmlns:xlink="http://www.w3.org/1999/xlink">
    <!-- Generator: Sketch 42 (36781) - http://www.bohemiancoding.com/sketch -->
    <title>Artboard</title>
    <desc>Created with Sketch.</desc>
    <defs></defs>
    <g id="Page-1" stroke="none" stroke-width="1" fill="none" fill-rule="evenodd">
        <g id="1597x987" transform="translate(-407.000000, -506.000000)" fill-rule="nonzero" fill="#373737">
            <g id="qvickt" transform="translate(143.000000, 507.000000)">
                <g id="t" transform="translate(263.714857, 11.153300)">
                    <path d="M28.6013558,70.8464265 C30.2313991,70.8513387 31.8592944,70.7277756 33.4699213,70.4768848 C34.7259918,70.2942009 35.9698494,70.0356352 37.1946672,69.7026069 L37.1946672,76.9761265 C35.7404014,77.5916085 34.2090383,78.0060238 32.6428518,78.2079322 C30.8539108,78.5134261 29.0435152,78.6762244 27.2287723,78.6947887 C15.0866873,78.6947887 9.01564477,72.2991752 9.01564477,59.5079481 L9.01564477,22.1607716 L0,22.1607716 L0,17.5972247 L8.99218181,13.6437149 L13.004349,0.240495404 L18.5064146,0.240495404 L18.5064146,14.7875345 L36.7195421,14.7875345 L36.7195421,22.1783688 L18.5181461,22.1783688 L18.5181461,59.1325406 C18.5181461,62.9139887 19.4156046,65.8155755 21.2105215,67.8373011 C23.0054384,69.8590267 25.4690498,70.8620685 28.6013558,70.8464265 Z" id="Shape"></path>
                </g>
            </g>
        </g>
        <g id="Artboard"></g>
    </g>
</svg>