<?xml version="1.0" encoding="UTF-8"?>
<svg width="53px" height="121px" viewBox="0 0 53 121" version="1.1" xmlns="http://www.w3.org/2000/svg" xmlns:xlink="http://www.w3.org/1999/xlink">
    <!-- Generator: Sketch 42 (36781) - http://www.bohemiancoding.com/sketch -->
    <title>Artboard</title>
    <desc>Created with Sketch.</desc>
    <defs></defs>
    <g id="Page-1" stroke="none" stroke-width="1" fill="none" fill-rule="evenodd">
        <g id="1597x987" transform="translate(-229.000000, -343.000000)" fill-rule="nonzero" fill="#1F1300">
            <g id="Gud" transform="translate(143.000000, 344.000000)">
                <g id="u" transform="translate(86.000000, 26.214782)">
                    <g id="Layer_1">
                        <path d="M9.63154764,0.105583348 L9.63154764,40.831427 C9.63154764,45.9502641 10.8046959,49.7688619 13.1509926,52.2872202 C15.4972892,54.8055786 19.1301385,56.066713 24.0495404,56.0706235 C30.6191709,56.0706235 35.421258,54.2757066 38.4558016,50.6858728 C41.4903453,47.096039 43.0076171,41.2302974 43.0076171,33.0886481 L43.0076171,0.105583348 L52.5159842,0.105583348 L52.5159842,62.869018 L44.6910849,62.869018 L43.3185014,54.4458131 L42.8199134,54.4458131 C40.8635781,57.5660593 38.0405216,60.0487185 34.6958613,61.5902863 C30.9879196,63.2767914 26.9490695,64.1106185 22.8763921,64.0304348 C15.2391966,64.0304348 9.52009855,62.2159654 5.71909802,58.5870267 C1.91809749,54.9580879 0.0117314831,49.1549142 0,41.1775057 L0,0.117314831 L9.63154764,0.105583348 Z" id="Shape"></path>
                    </g>
                </g>
            </g>
        </g>
        <g id="Artboard"></g>
    </g>
</svg>