<?xml version="1.0" encoding="UTF-8"?>
<svg width="70px" height="121px" viewBox="0 0 70 121" version="1.1" xmlns="http://www.w3.org/2000/svg" xmlns:xlink="http://www.w3.org/1999/xlink">
    <!-- Generator: Sketch 42 (36781) - http://www.bohemiancoding.com/sketch -->
    <title>Artboard</title>
    <desc>Created with Sketch.</desc>
    <defs></defs>
    <g id="Page-1" stroke="none" stroke-width="1" fill="none" fill-rule="evenodd">
        <g id="1597x987" transform="translate(-143.000000, -343.000000)" fill-rule="nonzero" fill="#373737">
            <g id="Gud" transform="translate(143.000000, 344.000000)">
                <g id="G" transform="translate(0.000000, 4.214782)">
                    <g id="Layer_1">
                        <path d="M41.306552,41.1775057 L69.8023245,41.1775057 L69.8023245,81.9033494 C65.392961,83.3128427 60.8829249,84.385447 56.3111189,85.11191 C51.0220275,85.8975811 45.6797866,86.2702044 40.3328389,86.2264009 C27.6550162,86.2264009 17.7829732,82.4547291 10.7167098,74.9113854 C3.6504465,67.3680418 0.117314831,56.7999307 0.117314831,43.2070523 C0.117314831,34.4983813 1.86530582,26.8729173 5.36128778,20.3306602 C8.73064219,13.8832561 14.0018454,8.6284358 20.4597066,5.2791674 C27.0293371,1.82229038 34.72519,0.0938518649 43.5472653,0.0938518649 C52.1210195,0.0220831923 60.6194376,1.69861472 68.5235929,5.02107477 L64.7401896,13.6143862 C57.165562,10.4038703 49.8900872,8.79861234 42.9137652,8.79861234 C32.7191064,8.79861234 24.7573399,11.8351112 19.0284656,17.908109 C13.2995914,23.9811067 10.4351542,32.4023564 10.4351542,43.1718579 C10.4351542,54.4770971 13.194008,63.050856 18.7117156,68.8931346 C24.2294231,74.7354132 32.335878,77.6565525 43.0310801,77.6565525 C48.7608032,77.6650783 54.4711795,76.9916478 60.0417306,75.6504689 L60.0417306,49.8588032 L41.306552,49.8588032 L41.306552,41.1775057 Z" id="Shape"></path>
                    </g>
                </g>
            </g>
        </g>
        <g id="Artboard"></g>
    </g>
</svg>