<?xml version="1.0" encoding="UTF-8"?>
<svg width="60px" height="121px" viewBox="0 0 60 121" version="1.1" xmlns="http://www.w3.org/2000/svg" xmlns:xlink="http://www.w3.org/1999/xlink">
    <!-- Generator: Sketch 42 (36781) - http://www.bohemiancoding.com/sketch -->
    <title>Artboard</title>
    <desc>Created with Sketch.</desc>
    <defs></defs>
    <g id="Page-1" stroke="none" stroke-width="1" fill="none" fill-rule="evenodd">
        <g id="1597x987" transform="translate(-732.000000, -506.000000)" fill-rule="nonzero" fill="#373737">
            <g id="byxa" transform="translate(672.000000, 507.214782)">
                <g id="y" transform="translate(60.595608, 25.921575)">
                    <g id="Layer_1">
                        <path d="M0.117314831,0 L10.3119737,0 L24.0495404,35.7810235 C27.0645315,43.9539567 28.9357031,49.8548927 29.6630551,53.4838315 L30.1205829,53.4838315 C30.6172157,51.5285843 31.6574072,48.2046641 33.2411574,43.5120709 C34.8249076,38.8194776 40.0121784,24.315454 48.8029698,0 L58.9976286,0 L32.0152174,71.4916581 C29.3404393,78.5579214 26.2120438,83.56922 22.6300309,86.5255537 C19.0480181,89.4818875 14.6741301,90.9463676 9.50836706,90.9189941 C6.61633621,90.9202266 3.73348894,90.5935695 0.915055683,89.945281 L0.915055683,82.319817 C3.23015758,82.7989885 5.5898865,83.029062 7.95394555,83.0061088 C14.4844712,83.0061088 19.1438252,79.3400203 21.9320077,72.0078434 L25.4514526,63.074319 L0.117314831,0 Z" id="Shape"></path>
                    </g>
                </g>
            </g>
        </g>
        <g id="Artboard"></g>
    </g>
</svg>
